<svg width="160" height="160" viewBox="0 0 160 160" fill="none" xmlns="http://www.w3.org/2000/svg">
  <rect width="160" height="160" fill="#C8FF2C"/>
  <path d="M37 48.5C37 38.835 44.835 31 54.5 31H111C118.18 31 124 36.8203 124 44V52H57C53.134 52 50 55.134 50 59V105C50 108.866 53.134 112 57 112H124V121C124 128.18 118.18 134 111 134H54.5C44.835 134 37 126.165 37 116.5V48.5Z" fill="#080806"/>
  <path d="M63 67C63 61.4772 67.4772 57 73 57H131C136.523 57 141 61.4772 141 67V99C141 104.523 136.523 109 131 109H73C67.4772 109 63 104.523 63 99V67Z" fill="#080806"/>
  <circle cx="122" cy="83" r="10" fill="#C8FF2C"/>
  <path d="M69 41H104" stroke="#C8FF2C" stroke-width="9" stroke-linecap="square"/>
</svg>
